<svg class="logo" width="100%" height="100%" viewBox="0 0 448 512" xmlns="http://www.w3.org/2000/svg" xmlns:svg="http://www.w3.org/2000/svg">
 <g>
  <path id="raplog" stroke-miterlimit="4" stroke-width="1.12343"
        d="M 125.00,3.21
           C 142.58,3.00 184.96,2.07 200.00,4.44
             229.53,9.09 265.81,31.41 285.91,53.00
             291.89,59.42 299.79,69.40 304.13,77.00
             304.13,77.00 327.42,135.00 327.42,135.00
             327.42,135.00 380.31,279.00 380.31,279.00
             380.31,279.00 426.00,408.00 426.00,408.00
             426.00,408.00 438.00,443.00 438.00,443.00
             440.33,449.99 443.26,457.56 442.96,465.00
             442.09,486.59 424.22,504.26 404.00,509.10
             398.74,510.36 391.52,510.06 386.00,510.00
             364.49,509.74 351.78,492.18 341.00,476.00
             337.21,470.31 330.08,456.85 324.00,454.60
             322.07,453.89 319.08,454.00 317.00,454.00
             317.00,454.00 285.00,454.00 285.00,454.00
             285.00,454.00 268.00,453.00 268.00,453.00
             268.00,453.00 49.00,453.00 49.00,453.00
             36.24,452.85 18.72,446.49 14.65,433.00
             13.89,430.50 14.00,427.60 14.00,425.00
             14.00,425.00 14.00,109.00 14.00,109.00
             14.00,109.00 14.00,44.00 14.00,44.00
             14.00,33.88 11.96,23.15 19.33,15.17
             21.33,13.01 24.54,10.70 27.00,9.03
             38.20,1.44 42.90,5.14 55.00,3.21
             55.00,3.21 125.00,3.21 125.00,3.21 Z
           M 39.00,12.53
           C 30.25,14.61 22.16,21.66 22.00,31.00
             22.00,31.00 22.00,95.00 22.00,95.00
             22.00,95.00 22.00,354.00 22.00,354.00
             22.00,354.00 22.00,410.00 22.00,410.00
             22.00,416.70 21.00,428.44 24.72,433.96
             31.02,443.28 43.71,444.98 54.00,445.00
             54.00,445.00 246.00,445.00 246.00,445.00
             246.00,445.00 261.00,446.00 261.00,446.00
             261.00,446.00 325.00,446.00 325.00,446.00
             327.24,446.00 330.68,445.78 332.59,447.02
             334.47,448.25 336.07,451.98 337.18,454.00
             337.18,454.00 345.05,467.00 345.05,467.00
             355.10,482.84 367.01,501.74 388.00,502.00
             407.80,502.24 423.90,495.52 431.79,476.00
             433.47,471.87 435.18,467.54 434.81,463.00
             434.42,458.19 430.06,446.19 428.33,441.00
             428.33,441.00 414.34,400.00 414.34,400.00
             414.34,400.00 368.31,270.00 368.31,270.00
             368.31,270.00 320.42,140.00 320.42,140.00
             310.70,114.00 301.47,82.71 282.83,62.00
             262.86,39.81 227.95,17.16 198.00,12.44
             198.00,12.44 188.00,11.91 188.00,11.91
             188.00,11.91 176.00,11.09 176.00,11.09
             176.00,11.09 124.00,11.09 124.00,11.09
             124.00,11.09 52.00,11.09 52.00,11.09
             52.00,11.09 39.00,12.53 39.00,12.53 Z
           M 175.00,40.00
           C 185.23,40.02 192.36,43.01 202.00,45.98
             209.12,48.16 216.24,50.11 223.00,53.32
             245.15,63.85 266.26,86.66 276.14,109.00
             280.82,119.59 284.86,135.41 285.00,147.00
             285.32,174.62 277.91,200.62 259.70,222.00
             259.70,222.00 232.92,250.00 232.92,250.00
             227.61,256.45 223.18,263.29 224.29,272.00
             225.86,284.37 236.71,302.19 243.20,313.00
             243.20,313.00 286.81,383.00 286.81,383.00
             291.97,391.42 304.78,409.05 306.00,418.00
             306.00,418.00 232.00,418.00 232.00,418.00
             232.00,418.00 217.00,419.00 217.00,419.00
             217.00,419.00 95.00,419.00 95.00,419.00
             95.00,419.00 80.00,420.00 80.00,420.00
             80.00,420.00 50.00,420.00 50.00,420.00
             50.00,420.00 49.00,404.00 49.00,404.00
             49.00,404.00 49.00,228.00 49.00,228.00
             49.00,228.00 49.00,130.00 49.00,130.00
             49.00,130.00 50.00,115.00 50.00,115.00
             50.00,115.00 50.00,40.00 50.00,40.00
             50.00,40.00 175.00,40.00 175.00,40.00 Z
           M 335.95,272.00
           C 335.95,272.00 387.20,409.00 387.20,409.00
             392.51,422.27 400.60,441.27 402.57,455.00
             403.33,460.26 403.87,470.72 396.96,471.85
             384.97,473.82 381.65,465.47 376.00,457.00
             376.00,457.00 341.31,403.00 341.31,403.00
             341.31,403.00 281.40,308.00 281.40,308.00
             281.40,308.00 266.72,284.00 266.72,284.00
             264.92,280.83 262.00,276.78 262.49,273.00
             263.01,269.06 267.69,263.96 270.29,261.00
             270.29,261.00 293.00,236.00 293.00,236.00
             293.00,236.00 308.53,213.14 308.53,213.14
             310.22,211.25 310.85,211.07 313.00,210.00
             313.00,210.00 335.95,272.00 335.95,272.00 Z
           M 89.00,322.00
           C 89.00,322.00 89.00,360.00 89.00,360.00
             89.00,365.64 88.13,373.06 91.85,377.67
             96.21,383.09 102.73,383.00 109.00,383.00
             109.00,383.00 110.00,371.00 110.00,371.00
             103.73,369.11 103.09,366.08 103.00,360.00
             103.00,360.00 103.00,312.00 103.00,312.00
             90.29,312.28 89.02,313.07 89.00,322.00 Z
           M 122.18,377.67
           C 127.91,383.04 136.51,383.99 144.00,382.67
             163.16,379.31 166.59,354.39 156.61,342.02
             150.22,334.09 142.46,333.28 133.00,334.33
             110.99,339.61 110.58,366.79 122.18,377.67 Z
           M 207.67,393.66
           C 211.68,389.73 212.58,385.28 213.41,380.00
             213.41,380.00 214.00,344.00 214.00,344.00
             213.99,342.06 214.14,339.14 212.98,337.51
             210.13,333.51 196.66,333.95 192.00,334.00
             165.76,334.32 165.30,366.26 177.04,375.44
             182.87,380.00 192.14,379.67 199.00,378.00
             197.34,392.32 183.23,386.42 174.00,385.00
             174.00,385.00 172.00,397.00 172.00,397.00
             182.44,398.96 199.22,401.97 207.67,393.66 Z
           M 143.61,347.56
           C 148.99,352.20 149.37,373.27 137.00,371.11
             127.35,369.41 124.87,348.28 138.00,345.78
             140.33,345.96 141.69,345.91 143.61,347.56 Z
           M 199.00,360.00
           C 198.93,363.50 199.00,366.25 194.94,367.19
             187.64,368.88 183.54,362.57 184.20,356.00
             184.80,350.02 187.33,347.08 193.00,345.52
             200.95,345.19 199.15,351.69 199.00,360.00 Z" />
 </g>
</svg>
